<?xml version="1.0" encoding="UTF-8" standalone="no"?>
<svg
   xmlns:dc="http://purl.org/dc/elements/1.1/"
   xmlns:cc="http://creativecommons.org/ns#"
   xmlns:rdf="http://www.w3.org/1999/02/22-rdf-syntax-ns#"
   xmlns:svg="http://www.w3.org/2000/svg"
   xmlns="http://www.w3.org/2000/svg"
   xmlns:sodipodi="http://sodipodi.sourceforge.net/DTD/sodipodi-0.dtd"
   xmlns:inkscape="http://www.inkscape.org/namespaces/inkscape"
   width="64"
   height="64"
   viewBox="0 0 16.933333 16.933334"
   version="1.1"
   id="svg8"
   inkscape:version="1.0 (4035a4fb49, 2020-05-01)"
   sodipodi:docname="CSV file.svg">
  <defs
     id="defs2">
    <clipPath
       clipPathUnits="userSpaceOnUse"
       id="clipPath16">
      <path
         d="M 0,192 H 192 V 0 H 0 Z"
         id="path18"
         inkscape:connector-curvature="0" />
    </clipPath>
    <clipPath
       clipPathUnits="userSpaceOnUse"
       id="clipPath26">
      <path
         d="M -4.88281e-4,192 H 192 V -4.88281e-4 H -4.88281e-4 Z"
         id="path28"
         inkscape:connector-curvature="0" />
    </clipPath>
    <clipPath
       clipPathUnits="userSpaceOnUse"
       id="clipPath34">
      <path
         d="M -4.88281e-4,192 H 192 V -4.88281e-4 H -4.88281e-4 Z"
         id="path36"
         inkscape:connector-curvature="0" />
    </clipPath>
    <clipPath
       clipPathUnits="userSpaceOnUse"
       id="clipPath38">
      <path
         d="M 0,192 H 192 V 0 H 0 Z"
         id="path40"
         inkscape:connector-curvature="0" />
    </clipPath>
    <clipPath
       clipPathUnits="userSpaceOnUse"
       id="clipPath42">
      <path
         d="M 0,192 H 192 V 0 H 0 Z"
         id="path44"
         inkscape:connector-curvature="0" />
    </clipPath>
    <clipPath
       clipPathUnits="userSpaceOnUse"
       id="clipPath116">
      <path
         d="M 0,192 H 192 V -4.88281e-4 H 0 Z"
         id="path118"
         inkscape:connector-curvature="0" />
    </clipPath>
    <clipPath
       clipPathUnits="userSpaceOnUse"
       id="clipPath120">
      <path
         d="M 0,192 H 192 V 4.88281e-4 H 0 Z"
         id="path122"
         inkscape:connector-curvature="0" />
    </clipPath>
    <clipPath
       clipPathUnits="userSpaceOnUse"
       id="clipPath124">
      <path
         d="M 192,192 H 0 V 0 h 192 z"
         id="path126"
         inkscape:connector-curvature="0" />
    </clipPath>
  </defs>
  <sodipodi:namedview
     id="base"
     pagecolor="#ffffff"
     bordercolor="#666666"
     borderopacity="1.0"
     inkscape:pageopacity="0.0"
     inkscape:pageshadow="2"
     inkscape:zoom="10.974733"
     inkscape:cx="58.99739"
     inkscape:cy="53.338641"
     inkscape:document-units="px"
     inkscape:current-layer="layer1"
     inkscape:document-rotation="0"
     showgrid="false"
     units="px"
     inkscape:window-width="1366"
     inkscape:window-height="706"
     inkscape:window-x="-8"
     inkscape:window-y="-8"
     inkscape:window-maximized="1" />
  <metadata
     id="metadata5">
    <rdf:RDF>
      <cc:Work
         rdf:about="">
        <dc:format>image/svg+xml</dc:format>
        <dc:type
           rdf:resource="http://purl.org/dc/dcmitype/StillImage" />
        <dc:title />
      </cc:Work>
    </rdf:RDF>
  </metadata>
  <g
     inkscape:label="Layer 1"
     inkscape:groupmode="layer"
     id="layer1">
    <g
       transform="translate(-2.7458184,3.8169643)"
       id="g1702">
      <g
         id="g1697"
         transform="matrix(1.0336578,0,0,1.0333305,-0.16567103,0.11840407)"
         style="stroke-width:0.967591">
        <path
           id="path1710"
           d="M 4.9217235,-3.8085938 A 0.25603411,0.25603411 0 0 0 4.6658641,-3.5527344 V 12.322266 a 0.25603411,0.25603411 0 0 0 0.2558594,0.255859 H 17.093598 a 0.25603411,0.25603411 0 0 0 0.255859,-0.255859 V 1.3886719 a 0.25603411,0.25603411 0 0 0 -0.07227,-0.1796875 l -4.796875,-4.9179688 v -0.00195 a 0.25600851,0.25600851 0 0 0 -0.01953,-0.019531 0.25600851,0.25600851 0 0 0 -0.02149,-0.019531 0.25600851,0.25600851 0 0 0 -0.02344,-0.017578 0.25600851,0.25600851 0 0 0 -0.02344,-0.013672 0.25600851,0.25600851 0 0 0 -0.01367,-0.00586 0.25600851,0.25600851 0 0 0 -0.02539,-0.00977 0.25600851,0.25600851 0 0 0 -0.01367,-0.00391 0.25600851,0.25600851 0 0 0 -0.0059,0 0.25600851,0.25600851 0 0 0 -0.03711,-0.00586 0.25600851,0.25600851 0 0 0 -0.01367,-0.00195 0.25600851,0.25600851 0 0 0 -0.0059,0 h -0.0078 z m 0.2558594,0.5117188 h 6.9902341 l 4.669922,4.7890625 V 12.066406 H 5.1775829 Z"
           style="color:#000000;font-style:normal;font-variant:normal;font-weight:normal;font-stretch:normal;font-size:medium;line-height:normal;font-family:sans-serif;font-variant-ligatures:normal;font-variant-position:normal;font-variant-caps:normal;font-variant-numeric:normal;font-variant-alternates:normal;font-variant-east-asian:normal;font-feature-settings:normal;font-variation-settings:normal;text-indent:0;text-align:start;text-decoration:none;text-decoration-line:none;text-decoration-style:solid;text-decoration-color:#000000;letter-spacing:normal;word-spacing:normal;text-transform:none;writing-mode:lr-tb;direction:ltr;text-orientation:mixed;dominant-baseline:auto;baseline-shift:baseline;text-anchor:start;white-space:normal;shape-padding:0;shape-margin:0;inline-size:0;clip-rule:nonzero;display:inline;overflow:visible;visibility:visible;opacity:0.99;isolation:auto;mix-blend-mode:normal;color-interpolation:sRGB;color-interpolation-filters:linearRGB;solid-color:#000000;solid-opacity:1;vector-effect:none;fill:#000000;fill-opacity:1;fill-rule:nonzero;stroke:none;stroke-width:0.512017;stroke-linecap:round;stroke-linejoin:round;stroke-miterlimit:4;stroke-dasharray:none;stroke-dashoffset:0;stroke-opacity:1;color-rendering:auto;image-rendering:auto;shape-rendering:auto;text-rendering:auto;enable-background:accumulate;stop-color:#000000;stop-opacity:1" />
        <path
           id="path1706"
           d="M 12.269531 -3.8085938 A 0.25603411 0.25603411 0 0 0 12.021484 -3.5527344 L 12.021484 1.3886719 A 0.25603411 0.25603411 0 0 0 12.277344 1.6445312 L 17.09375 1.6445312 A 0.25603411 0.25603411 0 0 0 17.277344 1.2089844 L 12.460938 -3.7304688 A 0.25603411 0.25603411 0 0 0 12.269531 -3.8085938 z M 12.533203 -2.921875 L 16.488281 1.1328125 L 12.533203 1.1328125 L 12.533203 -2.921875 z "
           style="color:#000000;font-style:normal;font-variant:normal;font-weight:normal;font-stretch:normal;font-size:medium;line-height:normal;font-family:sans-serif;font-variant-ligatures:normal;font-variant-position:normal;font-variant-caps:normal;font-variant-numeric:normal;font-variant-alternates:normal;font-variant-east-asian:normal;font-feature-settings:normal;font-variation-settings:normal;text-indent:0;text-align:start;text-decoration:none;text-decoration-line:none;text-decoration-style:solid;text-decoration-color:#000000;letter-spacing:normal;word-spacing:normal;text-transform:none;writing-mode:lr-tb;direction:ltr;text-orientation:mixed;dominant-baseline:auto;baseline-shift:baseline;text-anchor:start;white-space:normal;shape-padding:0;shape-margin:0;inline-size:0;clip-rule:nonzero;display:inline;overflow:visible;visibility:visible;isolation:auto;mix-blend-mode:normal;color-interpolation:sRGB;color-interpolation-filters:linearRGB;solid-color:#000000;solid-opacity:1;vector-effect:none;fill:#000000;fill-opacity:1;fill-rule:nonzero;stroke:none;stroke-width:0.512017;stroke-linecap:round;stroke-linejoin:round;stroke-miterlimit:4;stroke-dasharray:none;stroke-dashoffset:0;stroke-opacity:1;color-rendering:auto;image-rendering:auto;shape-rendering:auto;text-rendering:auto;enable-background:accumulate;stop-color:#000000;stop-opacity:1;opacity:0.99" />
      </g>
    </g>
    <g
       style="font-size:5.29167px;line-height:2;font-family:Calibri;-inkscape-font-specification:Calibri;text-align:center;writing-mode:lr-tb;text-anchor:middle;opacity:0.99;fill:none;stroke:#000000;stroke-width:0.264583;stroke-linecap:round;stroke-linejoin:round;stop-color:#000000"
       id="text26"
       aria-label="CSV">
      <path
         id="path29"
         style="font-weight:normal;font-size:5.29167px;fill:#000000;fill-opacity:1;stroke:none;stroke-width:0.264583"
         d="m 6.953264,14.69161 q 0,0.04134 -0.00258,0.07235 -0.00258,0.03101 -0.010335,0.05426 -0.00517,0.02325 -0.015503,0.04134 -0.010335,0.01809 -0.036174,0.04392 -0.025838,0.02584 -0.1085205,0.0801 -0.082682,0.05168 -0.2067059,0.103353 -0.1214397,0.04909 -0.2816367,0.08268 -0.1576132,0.03617 -0.3462323,0.03617 -0.3255617,0 -0.5891117,-0.108521 -0.2609661,-0.10852 -0.4470014,-0.320394 -0.1834515,-0.211873 -0.2842206,-0.521932 -0.098185,-0.312643 -0.098185,-0.718303 0,-0.415995 0.1059367,-0.741557 0.1085206,-0.325562 0.3023073,-0.550354 0.1937868,-0.227377 0.4625044,-0.346233 0.2713014,-0.118856 0.5994469,-0.118856 0.1446941,0 0.2816368,0.02842 0.1369426,0.02584 0.2532146,0.06718 0.1162721,0.04134 0.2067059,0.0956 0.090434,0.05426 0.1240235,0.09043 0.036173,0.03359 0.046509,0.05168 0.010335,0.01809 0.015503,0.04392 0.00775,0.02325 0.010335,0.05684 0.00517,0.03359 0.00517,0.0801 0,0.05168 -0.00517,0.08785 -0.00517,0.03617 -0.015503,0.06201 -0.010335,0.02325 -0.025838,0.03617 -0.012919,0.01034 -0.03359,0.01034 -0.036174,0 -0.1007691,-0.04909 -0.064596,-0.05168 -0.1679485,-0.111104 -0.1007691,-0.06201 -0.2480471,-0.111105 -0.1446941,-0.05168 -0.3488161,-0.05168 -0.2222088,0 -0.4056602,0.09043 -0.1808676,0.08785 -0.3100588,0.260966 -0.1291912,0.173116 -0.2015382,0.423747 -0.069763,0.248047 -0.069763,0.568441 0,0.31781 0.067179,0.563273 0.069763,0.24288 0.1963705,0.408244 0.1291912,0.162781 0.3152265,0.248047 0.1860352,0.08268 0.4211631,0.08268 0.1989544,0 0.3462323,-0.04909 0.1498618,-0.04909 0.2532147,-0.10852 0.1059368,-0.06201 0.1731162,-0.111105 0.067179,-0.04909 0.1059367,-0.04909 0.018087,0 0.031006,0.0078 0.012919,0.0078 0.020671,0.03101 0.00775,0.02067 0.010335,0.05943 0.00517,0.03876 0.00517,0.09819 z" />
      <path
         id="path31"
         style="font-weight:normal;font-size:5.29167px;fill:#000000;fill-opacity:1;stroke:none;stroke-width:0.264583"
         d="m 9.3381328,14.226522 q 0,0.235128 -0.08785,0.418579 -0.085266,0.183452 -0.2402956,0.312643 -0.1524455,0.126607 -0.3617352,0.191203 -0.2067059,0.0646 -0.4470014,0.0646 -0.1679485,0 -0.3126426,-0.02842 -0.1421103,-0.02842 -0.2557985,-0.06976 -0.1111044,-0.04134 -0.1886191,-0.08527 -0.074931,-0.04392 -0.1059368,-0.07493 -0.028422,-0.03101 -0.043925,-0.07752 -0.012919,-0.04909 -0.012919,-0.129191 0,-0.05684 0.00517,-0.09302 0.00517,-0.03876 0.015503,-0.06201 0.010335,-0.02326 0.025838,-0.03101 0.015503,-0.01033 0.036174,-0.01033 0.036174,0 0.1007691,0.04392 0.067179,0.04392 0.1705323,0.0956 0.1033529,0.05168 0.248047,0.09818 0.1472779,0.04392 0.3384809,0.04392 0.1446941,0 0.2635499,-0.03876 0.1214397,-0.03876 0.2067059,-0.108521 0.08785,-0.07235 0.1343588,-0.1757 0.046509,-0.103352 0.046509,-0.235127 0,-0.142111 -0.064596,-0.24288 -0.064596,-0.100769 -0.1705323,-0.1757 Q 8.5319799,13.77952 8.3950373,13.717509 8.2606785,13.652913 8.1185682,13.588318 7.976458,13.521138 7.8420992,13.44104 7.7077403,13.360941 7.6018036,13.252421 7.4958668,13.1439 7.4286874,12.999206 q -0.064596,-0.147278 -0.064596,-0.3514 0,-0.20929 0.074931,-0.372071 0.077515,-0.165364 0.2118735,-0.276469 0.1369427,-0.111104 0.3229779,-0.167948 0.1886191,-0.05943 0.4056603,-0.05943 0.1111044,0 0.2222088,0.02067 0.1136882,0.01809 0.2118735,0.05168 0.1007691,0.03101 0.1782838,0.07235 0.077515,0.03876 0.1007691,0.0646 0.025838,0.02325 0.03359,0.03876 0.00775,0.01292 0.012919,0.03617 0.00517,0.02067 0.00775,0.05168 0.00258,0.03101 0.00258,0.0801 0,0.04651 -0.00517,0.08268 -0.00258,0.03617 -0.010335,0.06201 -0.00775,0.02325 -0.023254,0.03617 -0.012919,0.01033 -0.031006,0.01033 -0.028422,0 -0.090434,-0.03617 -0.059428,-0.03617 -0.1472779,-0.0801 -0.08785,-0.04651 -0.2092897,-0.08268 -0.1188558,-0.03876 -0.2687176,-0.03876 -0.1395264,0 -0.2428793,0.03876 -0.103353,0.03617 -0.1705324,0.09818 -0.067179,0.06201 -0.1007691,0.147278 -0.03359,0.08527 -0.03359,0.180868 0,0.139526 0.064596,0.240295 0.064596,0.100769 0.1705323,0.178284 0.1085206,0.07752 0.2454632,0.14211 0.1369427,0.0646 0.2790529,0.131775 0.1421103,0.0646 0.2790529,0.144694 0.1369427,0.07752 0.2428794,0.186036 0.1085206,0.105936 0.1731162,0.253214 0.067179,0.144694 0.067179,0.343649 z" />
      <path
         id="path33"
         style="font-weight:normal;font-size:5.29167px;fill:#000000;fill-opacity:1;stroke:none;stroke-width:0.264583"
         d="m 11.291503,15.086935 q -0.01034,0.02842 -0.02842,0.04651 -0.01809,0.01809 -0.05168,0.02842 -0.03101,0.01033 -0.08268,0.01292 -0.04909,0.0052 -0.124023,0.0052 -0.05684,0 -0.100769,-0.0026 -0.04134,0 -0.07235,-0.0052 -0.031,-0.0052 -0.05426,-0.01033 -0.02067,-0.0078 -0.03617,-0.01809 -0.0155,-0.01033 -0.02584,-0.02325 -0.0078,-0.0155 -0.0155,-0.03617 L 9.6068503,11.978596 q -0.020671,-0.05684 -0.023254,-0.09043 0,-0.03617 0.023254,-0.05426 0.023254,-0.01809 0.074931,-0.02326 0.051676,-0.0052 0.1395264,-0.0052 0.072347,0 0.1136882,0.0052 0.043925,0.0026 0.067179,0.01292 0.02326,0.01034 0.03359,0.02842 0.01292,0.0155 0.02325,0.04134 l 0.958599,2.813783 h 0.0026 l 0.93276,-2.808616 q 0.0078,-0.02842 0.01809,-0.04651 0.01034,-0.01809 0.03617,-0.02842 0.02584,-0.01033 0.07235,-0.01292 0.04651,-0.0052 0.124024,-0.0052 0.0801,0 0.126607,0.0078 0.04651,0.0052 0.06201,0.02325 0.01809,0.01809 0.01292,0.05426 -0.0026,0.03359 -0.02326,0.09043 z" />
    </g>
  </g>
</svg>
